<svg width="25" height="25" viewBox="0 0 25 25" fill="none" xmlns="http://www.w3.org/2000/svg">
<g clip-path="url(#clip0_1_130)">
<path d="M24.839 8.56703C24.7168 8.44699 24.546 8.39008 24.3762 8.41281H17.7441V5.4823C17.7441 2.58609 15.3963 0.238281 12.5001 0.238281C9.60387 0.238281 7.25606 2.58609 7.25606 5.4823V8.41281H0.623814C0.438713 8.41281 0.25367 8.41281 0.16109 8.56703C0.0367437 8.68653 -0.0209419 8.85953 0.00686762 9.02975L2.32043 21.6771C2.64364 23.4414 4.16702 24.7324 5.96041 24.7619H19.0396C20.8382 24.7176 22.3584 23.4164 22.6796 21.6463L24.9932 9.02975C25.021 8.85953 24.9633 8.68653 24.839 8.56703ZM8.4899 5.4823C8.4899 3.26757 10.2853 1.47217 12.5 1.47217C14.7147 1.47217 16.5101 3.26757 16.5101 5.4823V8.41281H8.4899V5.4823ZM21.4457 21.492C21.2379 22.6611 20.227 23.5166 19.0396 23.528H5.96041C4.77304 23.5166 3.7621 22.6612 3.55433 21.492L1.36416 9.6467H23.6359L21.4457 21.492Z" fill="#404040"/>
<path d="M17.1272 15.6619C17.4679 15.6619 17.7441 15.3857 17.7441 15.0449V13.1941C17.7441 12.8534 17.4679 12.5771 17.1272 12.5771C16.7865 12.5771 16.5103 12.8534 16.5103 13.1941V15.0449C16.5102 15.3857 16.7865 15.6619 17.1272 15.6619Z" fill="#404040"/>
<path d="M7.87281 15.6619C8.21355 15.6619 8.48975 15.3857 8.48975 15.0449V13.1941C8.48975 12.8534 8.21355 12.5771 7.87281 12.5771C7.53207 12.5771 7.25586 12.8534 7.25586 13.1941V15.0449C7.25586 15.3857 7.53207 15.6619 7.87281 15.6619Z" fill="#404040"/>
</g>
<defs>
<clipPath id="clip0_1_130">
<rect width="25" height="25" fill="white"/>
</clipPath>
</defs>
</svg>
