<svg width="91" height="73" viewBox="0 0 91 73" fill="none" xmlns="http://www.w3.org/2000/svg">
<circle cx="31.5" cy="31.5" r="31.5" fill="#FBE8BD"/>
<path d="M74.1125 45.0231C69.3166 45.0231 65.415 48.9247 65.415 53.7206C65.415 58.5165 69.3166 62.4181 74.1125 62.4181C78.9093 62.4181 82.81 58.5165 82.81 53.7206C82.81 48.9247 78.9084 45.0231 74.1125 45.0231ZM74.1125 58.0693C71.7143 58.0693 69.7638 56.1189 69.7638 53.7206C69.7638 51.3223 71.7143 49.3718 74.1125 49.3718C76.5108 49.3718 78.4613 51.3223 78.4613 53.7206C78.4613 56.119 76.5108 58.0693 74.1125 58.0693Z" fill="#F1A350"/>
<path d="M44.3962 45.0231C39.6003 45.0231 35.6987 48.9247 35.6987 53.7206C35.6987 58.5165 39.6003 62.4181 44.3962 62.4181C49.1921 62.4181 53.0937 58.5165 53.0937 53.7206C53.0937 48.9247 49.1921 45.0231 44.3962 45.0231ZM44.3962 58.0693C41.9979 58.0693 40.0475 56.1189 40.0475 53.7206C40.0475 51.3223 41.9979 49.3718 44.3962 49.3718C46.7939 49.3718 48.745 51.3223 48.745 53.7206C48.745 56.119 46.7945 58.0693 44.3962 58.0693Z" fill="#F1A350"/>
<path d="M79.9696 20.1281C79.5999 19.3939 78.8483 18.9307 78.0264 18.9307H66.5747V23.2794H76.6855L82.6063 35.0558L86.4927 33.1017L79.9696 20.1281Z" fill="#F1A350"/>
<path d="M67.5894 51.6188H51.1367V55.9675H67.5894V51.6188Z" fill="#F1A350"/>
<path d="M37.8727 51.6188H30.335C29.1339 51.6188 28.1606 52.5922 28.1606 53.7931C28.1606 54.9941 29.1341 55.9674 30.335 55.9674H37.8728C39.0738 55.9674 40.0471 54.994 40.0471 53.7931C40.0471 52.5921 39.0737 51.6188 37.8727 51.6188Z" fill="#F1A350"/>
<path d="M90.5432 38.3261L86.2663 32.8177C85.8554 32.2871 85.2212 31.9769 84.5493 31.9769H68.7488V16.7563C68.7488 15.5553 67.7754 14.582 66.5745 14.582H30.335C29.1339 14.582 28.1606 15.5554 28.1606 16.7563C28.1606 17.9572 29.1341 18.9306 30.335 18.9306H64.4001V34.1512C64.4001 35.3522 65.3735 36.3255 66.5744 36.3255H83.4845L86.6511 40.4046V51.6186H80.6353C79.4342 51.6186 78.461 52.592 78.461 53.7929C78.461 54.9939 79.4344 55.9672 80.6353 55.9672H88.8254C90.0264 55.9672 90.9997 54.9938 90.9998 53.7929V39.6598C90.9998 39.177 90.8389 38.7074 90.5432 38.3261Z" fill="#F1A350"/>
<path d="M37.7277 40.6019H27.7256C26.5245 40.6019 25.5513 41.5753 25.5513 42.7762C25.5513 43.9773 26.5247 44.9505 27.7256 44.9505H37.7276C38.9286 44.9505 39.9019 43.9771 39.9019 42.7762C39.9021 41.5753 38.9286 40.6019 37.7277 40.6019Z" fill="#F1A350"/>
<path d="M42.729 32.0493H24.1743C22.9734 32.0493 22 33.0227 22 34.2238C22 35.4248 22.9734 36.3981 24.1743 36.3981H42.729C43.93 36.3981 44.9033 35.4247 44.9033 34.2238C44.9033 33.0229 43.93 32.0493 42.729 32.0493Z" fill="#F1A350"/>
<path d="M46.2802 23.4968H27.7256C26.5245 23.4968 25.5513 24.4702 25.5513 25.6711C25.5513 26.8722 26.5247 27.8455 27.7256 27.8455H46.2802C47.4813 27.8455 48.4546 26.872 48.4546 25.6711C48.4547 24.4702 47.4813 23.4968 46.2802 23.4968Z" fill="#F1A350"/>
</svg>
