<svg width="63" height="76" viewBox="0 0 63 76" fill="none" xmlns="http://www.w3.org/2000/svg">
<circle cx="31.5" cy="31.5" r="31.5" fill="#FBE8BD"/>
<path d="M49.218 60.7371C49.1755 60.666 49.1307 60.5978 49.086 60.5377C48.6416 59.9165 47.9809 59.5059 47.227 59.3819C46.4768 59.258 45.7163 59.4347 45.0974 59.8791L36.8987 65.7334H28.3334C27.9293 65.7334 27.6001 65.4048 27.6001 65.0001C27.6001 64.5953 27.9293 64.2667 28.3334 64.2667H33.1001C34.5154 64.2667 35.6668 63.1154 35.6668 61.7001C35.6668 61.692 35.666 61.6245 35.6653 61.6172C35.6199 60.2026 34.4267 59.0997 33.0415 59.1334H23.5016C22.656 59.1408 21.8325 59.4437 21.1835 59.9848L17.5975 62.9695C17.4303 63.1096 17.3335 63.3157 17.3335 63.5334V72.3334C17.3335 72.739 17.662 73.0667 18.0668 73.0667H36.2616C37.4525 73.0653 38.6126 72.6458 39.5293 71.8868L48.4196 64.5411C49.6273 63.6807 49.9778 62.0102 49.218 60.7371ZM47.5277 63.3786L38.5949 70.7567C37.9393 71.2994 37.1099 71.5985 36.2607 71.6H18.8001V63.8772L22.1228 61.111C22.5129 60.7862 23.0065 60.6043 23.5081 60.5999L33.0649 60.5992C33.6728 60.5984 34.1803 61.0583 34.2001 61.7C34.2001 62.3064 33.7066 62.8 33.1001 62.8H28.3334C27.1205 62.8 26.1334 63.787 26.1334 65C26.1334 66.2129 27.1205 67.2 28.3334 67.2H37.1334C37.2859 67.2 37.4348 67.1523 37.5609 67.0636L45.9517 61.0715C46.2539 60.8544 46.6212 60.7701 46.9894 60.8287C47.3568 60.8896 47.678 61.089 47.8987 61.397C47.9207 61.4271 47.9405 61.4579 47.9596 61.4894C48.3307 62.1107 48.1583 62.9268 47.5277 63.3786Z" fill="#F1A350"/>
<path d="M18.0447 62.0667H10V63.5333H17.3113V74.5333H10V75.9999H18.0447C18.4495 75.9999 18.778 75.6722 18.778 75.2666V62.8C18.778 62.3944 18.4495 62.0667 18.0447 62.0667Z" fill="#F1A350"/>
<path d="M13.6663 68.6667C12.4534 68.6667 11.4663 69.6538 11.4663 70.8668C11.4663 72.0797 12.4534 73.0668 13.6663 73.0668C14.8792 73.0668 15.8663 72.0797 15.8663 70.8668C15.8663 69.6538 14.8792 68.6667 13.6663 68.6667ZM13.6663 71.6001C13.2622 71.6001 12.933 71.2715 12.933 70.8668C12.933 70.462 13.2622 70.1334 13.6663 70.1334C14.0704 70.1334 14.3996 70.462 14.3996 70.8668C14.3996 71.2715 14.0704 71.6001 13.6663 71.6001Z" fill="#F1A350"/>
<path d="M53.2667 54.7333H10.7333C10.3285 54.7333 10 55.061 10 55.4666C10 58.2965 12.3027 60.5999 15.1333 60.5999H48.8666C51.6965 60.5999 53.9999 58.2965 53.9999 55.4666C54 55.0611 53.6722 54.7333 53.2667 54.7333ZM48.8667 59.1333H15.1333C13.3623 59.1333 11.881 57.8712 11.5407 56.2H52.4592C52.119 57.8712 50.6377 59.1333 48.8667 59.1333Z" fill="#F1A350"/>
<path d="M31.9998 35.6667C21.4867 35.6667 12.9331 44.2204 12.9331 54.7334V55.4667C12.9331 55.8723 13.2616 56.2001 13.6664 56.2001H50.3331C50.7386 56.2001 51.0664 55.8723 51.0664 55.4667V54.7334C51.0665 44.2203 42.5136 35.6667 31.9998 35.6667ZM14.3998 54.7334C14.3998 45.0291 22.2956 37.1334 31.9998 37.1334C41.704 37.1334 49.5998 45.0291 49.5998 54.7334H14.3998Z" fill="#F1A350"/>
<path d="M19.9383 44.0317C19.4256 44.6081 18.9505 45.2249 18.5259 45.8658L19.7483 46.6761C20.1356 46.0924 20.5682 45.5299 21.0346 45.0056L19.9383 44.0317Z" fill="#F1A350"/>
<path d="M31.9998 38.6C27.8814 38.6022 23.9602 40.1583 20.9595 42.9794L21.9642 44.0479C24.6922 41.4827 28.2569 40.0688 32.0006 40.0667L31.9998 38.6Z" fill="#F1A350"/>
<path d="M34.1998 32H29.7998V33.4667H34.1998V32Z" fill="#F1A350"/>
<path d="M32.7333 32.7333H31.2666V36.4H32.7333V32.7333Z" fill="#F1A350"/>
</svg>
