<svg width="63" height="76" viewBox="0 0 63 76" fill="none" xmlns="http://www.w3.org/2000/svg">
<circle cx="31.5" cy="31.5" r="31.5" fill="#FBE8BD"/>
<g clip-path="url(#clip0_2018_4)">
<path d="M36.1843 31.1337C35.6486 31.0047 35.1114 31.3339 34.9825 31.8686C34.8537 32.4034 35.1827 32.9415 35.7175 33.0704C43.791 35.0167 49.4295 42.1839 49.4295 50.4999C49.4295 60.3863 41.3864 68.4295 31.4999 68.4295C21.6134 68.4295 13.5703 60.3863 13.5703 50.4999C13.5703 42.1842 19.2086 35.017 27.2817 33.0705C27.8165 32.9415 28.1455 32.4034 28.0166 31.8687C27.8876 31.3339 27.3493 31.0051 26.8148 31.1338C22.5436 32.1637 18.6739 34.6327 15.9186 38.086C13.079 41.6449 11.5781 45.9376 11.5781 50.4999C11.5781 61.4848 20.515 70.4217 31.4999 70.4217C42.4848 70.4217 51.4217 61.4849 51.4217 50.4999C51.4217 45.9375 49.9208 41.6447 47.0811 38.0857C44.3257 34.6325 40.4558 32.1635 36.1843 31.1337Z" fill="#F1A350"/>
<path d="M56.3993 48.1041L55.234 45.9299L55.4283 43.2421C55.6152 41.5193 54.928 39.8379 53.5876 38.7414L51.6532 37.1574L50.8923 34.8652C50.4662 33.1126 49.1351 31.7039 47.4081 31.1822L45.0204 30.4609L43.1918 28.3472C42.1098 27.0745 40.4721 26.4125 38.8108 26.5757L36.3325 26.8226L33.8963 25.6005C32.395 24.8002 30.6051 24.7995 29.1036 25.6004L26.9295 26.7657L24.2418 26.5712C22.5182 26.3844 20.8374 27.0717 19.741 28.4119L18.1569 30.3463L15.8648 31.1072C14.1121 31.5334 12.7034 32.8644 12.1818 34.5913L11.4605 36.9791L9.34682 38.8078C8.07422 39.8898 7.41182 41.5271 7.57528 43.1888L7.82221 45.6671L6.6001 48.1032C5.79965 49.6046 5.79905 51.3945 6.5999 52.8961L7.76523 55.0702L7.57079 57.758C7.38403 59.4808 8.07123 61.1621 9.41147 62.2587L11.3459 63.8427L12.1068 66.1349C12.5328 67.8875 13.8639 69.2962 15.591 69.8179L17.9786 70.5391L19.8074 72.6529C20.8894 73.9255 22.5264 74.5879 24.1884 74.4244L26.6665 74.1775L29.1025 75.3994C29.8534 75.7998 30.6766 76.0001 31.4998 76.0001C32.3223 76.0001 33.1449 75.8001 33.8955 75.3998L36.0696 74.2345L38.7574 74.429C40.4801 74.6154 42.1615 73.9285 43.2582 72.5883L44.8422 70.6539L47.1345 69.8931C48.887 69.4669 50.2956 68.1359 50.8172 66.4088L51.5386 64.0212L53.6524 62.1925C54.925 61.1105 55.5874 59.4732 55.4239 57.8114L55.1769 55.3333L56.3989 52.8972C57.1994 51.3957 57.2002 49.6057 56.3993 48.1041ZM54.6367 51.9675C54.6323 51.9757 54.6281 51.9839 54.624 51.992L53.2667 54.6979C53.1821 54.8665 53.1472 55.0556 53.1658 55.2434L53.4414 58.0075C53.5408 59.0183 53.1373 60.0153 52.3555 60.6801L50.0169 62.7034C49.8742 62.8268 49.7696 62.9881 49.7151 63.1686L48.9102 65.8326C48.5894 66.8948 47.7177 67.7115 46.6354 67.9638C46.6059 67.9707 46.5766 67.979 46.5478 67.9885L43.9406 68.8539C43.7616 68.9133 43.6031 69.0223 43.4837 69.1682L41.7166 71.3263C41.0455 72.1467 40.0144 72.5657 38.9594 72.4469C38.9462 72.4455 38.933 72.4443 38.9199 72.4433L35.9255 72.2267C35.7369 72.2132 35.5493 72.2532 35.3831 72.3423L32.9562 73.643C32.041 74.131 30.9479 74.129 30.032 73.6373C30.0239 73.633 30.0157 73.6287 30.0075 73.6246L27.3017 72.2674C27.1627 72.1976 27.0097 72.1616 26.8551 72.1616C26.8222 72.1616 26.7892 72.1632 26.7563 72.1664L23.9921 72.4419C22.9815 72.5417 21.9843 72.1378 21.3195 71.356L19.2963 69.0174C19.1729 68.8748 19.0116 68.7701 18.831 68.7156L16.1669 67.9109C15.1046 67.59 14.288 66.7183 14.0357 65.636C14.0288 65.6064 14.0206 65.5772 14.011 65.5483L13.1457 62.9411C13.0863 62.7621 12.9774 62.6037 12.8314 62.4843L10.6734 60.7171C9.85303 60.0459 9.43408 59.0152 9.55281 57.9599C9.55431 57.9468 9.5555 57.9336 9.5565 57.9204L9.77305 54.9258C9.78669 54.7378 9.74655 54.5497 9.6575 54.3835L8.35671 51.9568C7.86862 51.0416 7.87072 49.9485 8.36229 49.0326C8.36667 49.0245 8.37085 49.0163 8.37494 49.0082L9.73221 46.3023C9.81678 46.1337 9.85174 45.9446 9.83301 45.7569L9.55759 42.9926C9.45818 41.9818 9.8617 40.9848 10.6435 40.32L12.9822 38.2967C13.1248 38.1733 13.2294 38.012 13.284 37.8315L14.0888 35.1674C14.4096 34.1052 15.2813 33.2886 16.3637 33.0362C16.3933 33.0293 16.4224 33.021 16.4513 33.0115L19.0584 32.146C19.2374 32.0867 19.3958 31.9777 19.5152 31.8318L21.2825 29.6737C21.9536 28.8534 22.9847 28.4346 24.0396 28.5532C24.0528 28.5546 24.0659 28.5558 24.0791 28.5568L27.0735 28.7734C27.2611 28.7867 27.4497 28.7469 27.6159 28.6578L30.0427 27.3571C30.9578 26.8691 32.051 26.8711 32.9668 27.3627C32.9749 27.367 32.983 27.3713 32.9913 27.3754L35.6972 28.7326C35.8657 28.8172 36.0549 28.8523 36.2425 28.8335L39.0068 28.558C40.0174 28.4584 41.0146 28.8621 41.6794 29.644L43.7027 31.9826C43.826 32.1252 43.9873 32.2298 44.1679 32.2844L46.832 33.0892C47.8942 33.4101 48.7108 34.2819 48.9632 35.3641C48.9701 35.3937 48.9783 35.4229 48.9879 35.4518L49.8533 38.0588C49.9128 38.2378 50.0216 38.3962 50.1676 38.5156L52.3257 40.2828C53.1461 40.954 53.5649 41.9846 53.4462 43.04C53.4447 43.0531 53.4435 43.0663 53.4426 43.0795L53.2261 46.0741C53.2124 46.2621 53.2526 46.4502 53.3415 46.6164L54.6423 49.0432C55.1305 49.9586 55.1284 51.0517 54.6367 51.9675Z" fill="#F1A350"/>
<path d="M27.1771 45.0728C27.0173 44.7362 26.6751 44.5028 26.2777 44.5028H21.0146C20.4645 44.5028 20.0186 44.9487 20.0186 45.4989V60.5763C20.0186 61.1264 20.4645 61.5724 21.0146 61.5724H26.2777C26.6906 61.5724 27.0447 61.3213 27.1957 60.9634C27.955 61.0699 28.7372 61.2859 29.5516 61.5114C30.776 61.8504 32.042 62.2009 33.3573 62.2009H39.1076C40.8852 62.2009 42.3257 61.2585 42.9609 59.6798C43.2703 58.9106 43.3245 58.1123 43.1437 57.4441C43.4744 57.1467 43.7539 56.7766 43.9652 56.3444C44.3937 55.4686 44.4792 54.4838 44.2364 53.6543C44.689 53.2171 45.0267 52.6396 45.2032 51.9588C45.3682 51.3223 45.3654 50.6943 45.2185 50.1501C46.117 49.6216 46.7221 48.6613 46.7221 47.5794C46.7221 46.7308 46.3917 45.9489 45.7917 45.3777C45.2155 44.8293 44.4482 44.5272 43.631 44.5272L35.5257 44.5274C34.9099 43.7549 34.7182 42.7066 35.0689 41.8628C35.7884 40.131 35.7438 38.6651 34.9245 37.1098C34.3163 35.9554 32.6809 34.8061 31.3064 35.0024C30.4756 35.1211 29.8745 35.7083 29.6982 36.5733C29.6463 36.8278 29.632 37.1027 29.6156 37.4211C29.5749 38.2064 29.5192 39.282 28.8412 40.5808C28.3817 41.4612 28.2284 42.3668 28.0932 43.1657C27.8994 44.3102 27.8055 44.8616 27.1771 45.0728ZM22.0107 46.4949H25.2816V59.5802H22.0107V46.4949ZM30.0574 43.4982C30.1735 42.8128 30.2934 42.104 30.6074 41.5026C31.4862 39.8189 31.5606 38.3824 31.6052 37.5242C31.617 37.2956 31.6282 37.0796 31.6503 36.971C31.6504 36.9703 31.6506 36.9695 31.6508 36.9688C31.9963 36.9736 32.8467 37.4401 33.162 38.0385C33.7076 39.0741 33.7257 39.9035 33.2293 41.0986C32.7816 42.1762 32.8152 43.4266 33.2581 44.5383C32.7735 44.6058 32.4001 45.0206 32.4001 45.5238C32.4001 46.0738 32.8462 46.5199 33.3962 46.5199L43.631 46.5196C43.9345 46.5196 44.2141 46.6265 44.4181 46.8208C44.5604 46.9561 44.7299 47.1978 44.7299 47.5795C44.7299 48.1138 44.2402 48.5758 43.6603 48.5884L41.0965 48.6442C40.5466 48.6562 40.1104 49.1117 40.1223 49.6617C40.1342 50.2044 40.5776 50.6362 41.1178 50.6362C41.1251 50.6362 41.1325 50.6362 41.1399 50.636L43.2752 50.5896C43.3448 50.7869 43.381 51.1633 43.2344 51.5945C43.1096 51.9613 42.7746 52.5765 41.9319 52.5765C41.3819 52.5765 40.9358 53.0224 40.9358 53.5726C40.9358 54.1227 41.3819 54.5687 41.9319 54.5687C42.0829 54.5687 42.2312 54.5593 42.3762 54.5409C42.3885 54.8228 42.3306 55.153 42.1759 55.4691C41.993 55.8429 41.6315 56.2885 40.948 56.2885C40.398 56.2885 39.9519 56.7345 39.9519 57.2846C39.9519 57.8347 40.398 58.2807 40.948 58.2807C41.0511 58.2807 41.1531 58.2761 41.2538 58.267C41.2512 58.4582 41.2124 58.6972 41.1037 58.9585C40.9475 59.3344 40.4402 60.2087 39.1078 60.2087H33.3575C32.3129 60.2087 31.2299 59.9089 30.0834 59.5914C29.1711 59.3388 28.2357 59.08 27.274 58.9645V47.0888C29.5166 46.6824 29.8258 44.8669 30.0574 43.4982Z" fill="#F1A350"/>
<path d="M31.5003 32.5703C32.0504 32.5703 32.4964 32.1244 32.4964 31.5742C32.4964 31.0241 32.0504 30.5781 31.5003 30.5781H31.4996C30.9495 30.5781 30.5039 31.0241 30.5039 31.5742C30.5039 32.1244 30.9502 32.5703 31.5003 32.5703Z" fill="#F1A350"/>
</g>
<defs>
<clipPath id="clip0_2018_4">
<rect width="51" height="51" fill="white" transform="translate(6 25)"/>
</clipPath>
</defs>
</svg>
